<svg xmlns="http://www.w3.org/2000/svg" xmlns:xlink="http://www.w3.org/1999/xlink" viewBox="0 0 100 146.67"><defs><style>.cls-1{fill:none;}.cls-2{clip-path:url(#clip-path);}.cls-3{fill:#fbfae7;}</style><clipPath id="clip-path" transform="translate(-121 -178.67)"><path class="cls-1" d="M220.73,307.58c.65-1.77-.09-5-.09-6.94,0-2.59,0-5.18,0-7.76s-.16-5.37,0-8a11.28,11.28,0,0,0,.22-2.7c-.16-.67-.93-1-.91-1.62-.38-.09-.75-.43-1.17-.46,1.21-.71,1.07-1,.91-2.25.14-.07.28-.05.43-.11a71.79,71.79,0,0,0,.5-11.75c0-1.33-.26-2.73-.27-4s.47-2.33.22-3.5-1.09-2.38-.07-3.25c-.86-2.29-.2-4.53,0-6.84s.06-4.93.06-7.37,0-4.73,0-7.09c0-.6.31-5,0-5.22a13.1,13.1,0,0,0-1.74-1.15c.46,0,.72-.28,1.16-.33a2.56,2.56,0,0,0-1-1.71,3.57,3.57,0,0,0,1.37-.73c.32-4.72.1-9.53.09-14.27,0-3.65,0-7.3,0-10.95q0-4.37,0-8.72V185a9.37,9.37,0,0,0-7.77-6.28h-4.6l-11.82,0c-2,0-6.57-.54-8.12,1.15-.76-1.05-2.81-.63-4-1.17-1.1.52-4.19,0-5.47,0l-23.44,0-16,0H128.44a9.36,9.36,0,0,0-7.32,7.17,5.94,5.94,0,0,0,1.12,2.62c-.15.06-.29,0-.44.11a1.15,1.15,0,0,0,.94,1.26,5.39,5.39,0,0,1-1.22.64c.42,2.4-.45,4.9-.45,7.3,0,3.86-.85,6.65,3.17,8-1,.26-2.19-.41-3,.28.38.12.72.38,1.1.46-.45,0-.8.28-1.2.39.16,7.7,0,15.42,0,23.13q0,4.51,0,9.05c0,1.87-.27,5.84,1.14,7.25-.93.3-.72,2.85-.8,3.74-.71,8.54-.3,17.24-.29,25.82q0,18.74,0,37.46v4.94a9.38,9.38,0,0,0,7.2,6.74h11l9.41,0c.69,0,7.72.8,6.79-1.51.18.44.53.74.71,1.2a.91.91,0,0,1,1.49,0c1.74-1,4.48.28,6.35.31,2.69,0,5.39,0,8.08,0l15.75,0c1.82,0,3.6-.26,5.38-.27s3.48,1,5-.32c1.37,1.47,5.72.57,7.53.57H214a9.38,9.38,0,0,0,6.54-6.12,25.35,25.35,0,0,0-.42-2.88c.16-.06.29,0,.43-.11.43-1.61-.53-3.12-.66-4.66C219.81,310.62,219.89,308,220.73,307.58Z"/></clipPath></defs><g id="Layer_3" data-name="Layer 3"><g class="cls-2"><path class="cls-3" d="M221,316a9.34,9.34,0,0,1-9.27,9.37H130.27A9.34,9.34,0,0,1,121,316V188a9.34,9.34,0,0,1,9.27-9.37h81.46A9.34,9.34,0,0,1,221,188Z" transform="translate(-121 -178.67)"/></g></g><g id="Layer_2_copy" data-name="Layer 2 copy"><path d="M144.1,196.13c0,.29-1.26.83-1.76,1.14-.84.52-1.48,1-1.48,1s-1.64,0-2-.93l-.91-2.08H133l-.13.3c2.58,0,4.25,1.92,4.5,2a.15.15,0,0,0,.09,0c.42,0,.36-.67.62-.67.11,0,.15.1.15.19,0,.52-1.87,1.22-2.67,1.75a3.17,3.17,0,0,0-.69.61s0-.06,0-.1a.6.6,0,0,0-.08-.26,5.07,5.07,0,0,0-3.77-1.87c-1.2,0-2.07.57-2.07,1.61a1.58,1.58,0,0,0,1.74,1.66c.74,0,1-.41,1-.49s-.23-.11-.23-.3a.19.19,0,0,1,.18-.17.29.29,0,0,1,.26.29c0,.27-.33.83-1.26.83a1.73,1.73,0,0,1-1.9-1.88c0-1.57,1.55-3.09,3.8-3.2l.67-1.55c0-.53-.3-1.43-1.09-1.43a.65.65,0,0,0-.7.63c0,.15.18.29.18.35s0,0,0,0a.48.48,0,0,1-.3-.51,1.29,1.29,0,0,1,1.38-1.1,1.94,1.94,0,0,1,1.23.44l1.34-3.16,0-.11a2,2,0,0,0-1.83-1.4A1.31,1.31,0,0,0,132,189a.88.88,0,0,0,.86.88c.28,0,.16-.3.41-.3a.15.15,0,0,1,.16.16c0,.17-.24.29-.57.29a1,1,0,0,1-1-1.08c0-1.08,1.47-2.35,3.2-2.35a2.4,2.4,0,0,1,2.19,1.12c.16-1,.75-1.78,1.33-1.78a.49.49,0,0,1,.53.4c0,.09-.05.14-.11.14-.29,0,0-.35-.41-.35-.24,0-.71.35-.71,1.33a2.15,2.15,0,0,0,.18.84l3.42,7.54a2.31,2.31,0,0,0,1.4.76,1.12,1.12,0,0,0,1-.39c0-.06-.1-.14-.1-.21a.18.18,0,0,1,.2-.16c.08,0,.14.08.18.19A.23.23,0,0,1,144.1,196.13ZM137.79,195l-.11-.23h-4.52l-.1.23Zm-.66-1.48-1.76-4-1.69,4Z" transform="translate(-121 -178.67)"/><path d="M198,307.88c0-.29,1.26-.84,1.76-1.14.84-.52,1.48-1,1.48-1s1.64,0,2,.92l.91,2.09h4.93l.13-.31c-2.58,0-4.25-1.91-4.5-2a.15.15,0,0,0-.09,0c-.42,0-.36.67-.62.67-.11,0-.15-.11-.15-.2,0-.51,1.87-1.21,2.67-1.75a2.92,2.92,0,0,0,.69-.6s0,.06,0,.1a.6.6,0,0,0,.08.26,5.07,5.07,0,0,0,3.77,1.87c1.2,0,2.07-.58,2.07-1.61a1.58,1.58,0,0,0-1.74-1.66c-.74,0-1,.41-1,.49s.23.1.23.3a.2.2,0,0,1-.18.17.29.29,0,0,1-.26-.29c0-.27.33-.84,1.26-.84a1.74,1.74,0,0,1,1.9,1.89c0,1.57-1.55,3.09-3.8,3.19l-.67,1.56c0,.53.3,1.42,1.09,1.42a.64.64,0,0,0,.7-.62c0-.15-.18-.29-.18-.35s0,0,.05,0a.48.48,0,0,1,.3.51,1.29,1.29,0,0,1-1.38,1.1,1.94,1.94,0,0,1-1.23-.44l-1.34,3.16,0,.11a2,2,0,0,0,1.83,1.4,1.31,1.31,0,0,0,1.4-1.25.87.87,0,0,0-.85-.88c-.29,0-.17.3-.42.3a.16.16,0,0,1-.16-.17c0-.16.24-.29.58-.29a1,1,0,0,1,1,1.08c0,1.08-1.47,2.36-3.2,2.36a2.4,2.4,0,0,1-2.19-1.12c-.16,1-.75,1.78-1.33,1.78a.49.49,0,0,1-.53-.4c0-.09,0-.14.11-.14.29,0,0,.35.41.35.24,0,.71-.35.71-1.34a2.14,2.14,0,0,0-.18-.83l-3.42-7.55a2.31,2.31,0,0,0-1.4-.76c-.63,0-1,.32-1,.4s.09.14.09.21-.09.15-.2.15-.14-.07-.18-.18A.23.23,0,0,1,198,307.88Zm6.31,1.14.11.23h4.52l.1-.23Zm.66,1.48,1.76,4,1.69-4Z" transform="translate(-121 -178.67)"/></g><g id="Layer_5" data-name="Layer 5"><path d="M175.05,249.32a4.37,4.37,0,0,0-.72.06,4,4,0,0,0,.66-2.21,4.05,4.05,0,0,0-8.1,0,4,4,0,0,0,.65,2.19,5.85,5.85,0,0,0-.59,0,4.29,4.29,0,1,0,3.43,6.86v.38h0a11.06,11.06,0,0,1-1.87,4.12c-.08.11,0,.19.1.19h4.8c.13,0,.18-.08.1-.19a11.06,11.06,0,0,1-1.87-4.12h0v-.38a4.29,4.29,0,1,0,3.42-6.86Z" transform="translate(-121 -178.67)"/><path d="M138.14,202.8a1.87,1.87,0,0,0-.34,0,2,2,0,0,0,.31-1.05,1.93,1.93,0,0,0-3.86,0,1.85,1.85,0,0,0,.31,1l-.28,0a2,2,0,1,0,0,4.09,2,2,0,0,0,1.63-.82v.18h0a5.37,5.37,0,0,1-.89,2c0,.05,0,.09,0,.09h2.29c.07,0,.09,0,.05-.09a5.2,5.2,0,0,1-.89-2h0v-.18a2,2,0,0,0,3.67-1.22A2,2,0,0,0,138.14,202.8Z" transform="translate(-121 -178.67)"/><path d="M203.87,301.48a1.87,1.87,0,0,0,.34,0,2,2,0,0,0-.31,1.06,1.93,1.93,0,0,0,3.86,0,1.88,1.88,0,0,0-.31-1.05l.28,0a2,2,0,1,0-1.63-3.27V298h0a5.35,5.35,0,0,1,.89-2c0-.05,0-.09,0-.09h-2.29c-.06,0-.08,0,0,.09a5.18,5.18,0,0,1,.89,2h0v.18a2,2,0,1,0-1.63,3.27Z" transform="translate(-121 -178.67)"/></g></svg>