<svg id="Layer_9" data-name="Layer 9" xmlns="http://www.w3.org/2000/svg" viewBox="0 0 4053.52 932.99"><defs><style>.cls-1{fill:#b71c1c;}</style></defs><path d="M394.47,189.51c-95.19,0-176.65-49.73-243.54-49.73-92.61,0-134.63,60-134.63,91.75,0,41.16,46.3,89.18,119.19,89.18,39.45,0,60.89-14.57,69.46-28.29-7.71-.86-14.58-9.44-14.58-19.73,0-11.15,7.72-19.72,17.16-19.72,10.29,0,18,8.57,18,19.72,0,46.31-57.45,60.89-95.18,60.89C42,333.58,0,271,0,217.81c0-11.15.86-21.44,4.29-31.73C21.44,126.91,132.92,21.44,301,21.44c90,0,215.24,30.87,286.41,30.87,108.91,0,100.33-31.73,110.62-31.73,1.72,0,2.57.86,2.57,3.43a9.31,9.31,0,0,1-.85,4.29C689.46,60.88,536,189.51,394.47,189.51ZM963,576.26c0,.86-.86,1.71-2.57,1.71-4.29,0-19.73-6.86-44.6-6.86-28.29,0-70.31,7.72-127.77,34.31C700.6,646.58,663.73,715.18,660.3,727.18c-2.57,6.86-3.43,12.87-5.14,12.87-.86,0-.86-2.58-1.72-9.44-1.71-16.29-103.76-90.89-250.4-90.89-214.38,0-271.83,105.47-271.83,143.2,0,41.16,52.31,92.62,144.92,92.62,96.9,0,133.77-65.18,138.06-80.61a65.26,65.26,0,0,0,2.57-18c0-28.3-19.72-25.73-19.72-37.73,0-2.57,1.71-4.29,5.15-4.29,16.29,0,33.44,14.58,33.44,39.45,0,54-75.46,114-162.93,114-80.61,0-156.07-47.16-156.07-113.19C116.63,674,315.57,542,518.81,542c150.07,0,222.1,49.73,230.67,54.88,1.72.86,3.43,1.71,4.29,1.71,4.29,0,5.15-5.14,5.15-12,0-8.58-.86-122.63-2.58-134.63-2.57-16.3-54-48-99.47-48a109.13,109.13,0,0,0-31.73,4.28V524c0,2.57.86,5.15.86,6.86a3.14,3.14,0,0,1-3.43,3.43,6.44,6.44,0,0,1-3.43-.86c-38.59-9.43-99.47-3.43-99.47-18V187c0-9.43,37.73-13.72,114-68.6C704,67.79,722,31.78,727.14,31.78c2.57,0,6.86,16.29,99.47,73.74,54.88,34.31,79.75,80.61,79.75,114.91,0,42.88-67.74,81.47-80.61,90-3.43,3.44-6,5.15-6,6.87,0,3.42,24.87,5.14,64.32,32.58,50.59,36,60.88,56.6,60.88,56.6,0,3.43-12.86,7.72-12.86,25.72,0,15.44,1.71,101.19,1.71,108.91,0,12,16.3,24,20.58,27.44C957,570.26,963,574.54,963,576.26Zm-471.64-60c0,4.29,1.71,5.15,1.71,6,0-.85-1.71-.85-5.14-.85-21.44,0-110.62,21.43-119.2,26.58a5.54,5.54,0,0,1-4.29,1.72c-2.57,0-3.43-.86-3.43-3.43,0-1.72,1.72-4.29,3.43-6,6-6,6-32.58,6-32.58v-84c-7.72-2.57-16.3-5.15-24.87-5.15-33.45,0-51.45,21.44-51.45,36.88,0,12,19.72,23.15,19.72,24s0,2.57-1.72,2.57c-4.28,0-29.15-1.71-29.15-33.44,0-26.59,23.15-65.17,87.47-69.46v-49c-11.15-8.58-27.44-14.58-43.74-14.58-33.44,0-51.45,20.58-51.45,36,0,7.71,5.15,19.72,16.29,21.44,1.72,0,2.58.85,3.43,2.57,0,1.71,0,2.57-4.28,2.57-6.86,0-26.59-5.14-26.59-32.59,0-33.44,30-69.46,106.34-69.46V235.8c0-16.29-27.44-19.72-27.44-24.87,0-1.71,1.71-2.57,6.86-2.57a378.14,378.14,0,0,0,43.73,2.57c47.16,0,93.47-17.15,94.33-17.15,3.43,0,3.43,3.43,3.43,10.29ZM762.37,313c0-27.44-24.87-59.17-40.31-76.32-30.87-32.59-98.61-95.19-96.9-95.19-.86,0-.86,1.72-.86,2.57,0,2.58.86,6.86.86,12V399.61C662,391,734.93,364.45,754.65,337a40.14,40.14,0,0,0,7.7-24Z" transform="translate(0 0)"/><path d="M1090.79,707.46c-30-36.87-83.18-56.6-118.34-63.46,26.58,0,36-14.57,36-30V124.34c0-104.62-30-115.77-51.46-119.2A98.6,98.6,0,0,1,988.72,0c53.17,0,111.48,39.45,119.2,104.62,3.43-14.58,16.29-42,42.88-42,7.71,0,20.58,5.14,22.29,17.15a22.54,22.54,0,0,0-18.81-10.31c-7.72,0-15.44,8.57-15.44,27.44V612.27c0,22.3,23.15,30.88,46.31,30.88C1134.52,651.72,1106.22,680,1090.79,707.46Z" transform="translate(0 0)"/><path d="M1544.41,687.74c-23.15,0-114.05-35.16-114.05-50.6v-1.71c-32.58,15.43-64.31,74.6-58.31,74.6-7.72,0-2.57-33.44-67.75-58.31-18-6.86-35.15-8.57-49.73-8.57-32.59,0-40.3,12-44.59,12a2.28,2.28,0,0,1-2.58-1.94,2.22,2.22,0,0,1,0-.63c0-7.72,20.59-23.15,20.59-43.73V490.51c0-15.44-12-27.44-12-32.59,0-1.72.86-3.43,2.57-3.43,4.29,0,24.87,24,81.47,24,49.73,0,97.76-18.86,131.2-41.16V422.76c0-20.58-13.72-6-56.6-29.15-22.29-11.15-51.45-34.31-61.74-34.31s-43.73,25.73-43.73,54c0,29.15,15.43,35.16,28.3,35.16,10.29,0,16.29-7.72,18-15.44-7.71-.86-13.72-6-13.72-12.86s6.86-12.87,13.72-12.87c7.72,0,13.72,6,13.72,12.87,0,18.86-11.14,38.59-31.72,38.59-22.3,0-39.45-15.44-39.45-42.88,0-34.3,28.3-60.88,64.31-87.47,48.88-36,72.89-72.89,77.18-72.89,2.57,0,5.15,2.58,7.72,6.86,5.14,8.58,114.91,75.47,143.21,84.9a106,106,0,0,0,36.87,6.86c14.58,0,23.15-5.15,28.3-5.15,4.29,0,7.72,2.58,7.72,5.15,0,6-69.46,12-69.46,43.73V560c0,12.86,41.16,34.3,60.88,34.3,25.73,0,25.73-22.3,36-22.3a3.7,3.7,0,0,1,3.43,3.43,12.35,12.35,0,0,1-3.43,8.58C1638.74,597.7,1559,687.74,1544.41,687.74ZM1431.22,455.35c-75.46,45.45-82.32,18.86-82.32,40.3v61.74c0,18,26.58-2.57,81.46,59.17Z" transform="translate(0 0)"/><path d="M1962,623.42c-37.74,37.73-51.46,68.61-56.6,68.61-1.72,0-31.73-42.88-153.5-42.88-91.75,0-126.06,40.3-127.77,40.3s-1.72-.86-1.72-2.57c0-19.72,75.47-66.89,75.47-78.89V444.2c0-6.86-7.72-16.29-23.16-16.29-5.14,0-13.72,1.71-17.15,1.71s-4.28-.86-4.28-1.71c0-3.43,65.17-24,132.91-77.18,38.59-30.87,104.62-96,109.77-108.91,2.57-5.14,4.28-7.72,6-7.72.86,0,.86,1.72.86,4.29,0,5.15-1.72,10.29-1.72,17.15a35.46,35.46,0,0,0,8.58,23.16c12,14.57,66.88,62.6,90.89,62.6,11.15,0,15.44-7.72,15.44-12s-4.29-6-4.29-8.58a2.27,2.27,0,0,1,1.92-2.57,2.36,2.36,0,0,1,.65,0c6.86,0,9.44,6,9.44,12a37.21,37.21,0,0,1-3.43,16.29c-6.86,12.86-65.17,78.89-93.47,78.89-48,0-104.62-84.89-108.91-84.89-1.71,0-3.43,1.71-3.43,5.14V540.24c0,17.15,41.16,13.72,87.47,23.15,47.16,10.3,89.18,23.16,82.32,24,3.43,0,21.44-16.3,43.73-26.59a17,17,0,0,1,6-.85c3.43,0,4.28.85,4.28,2.57s-1.71,4.29-6,6.86C2021.19,576.26,1986.89,598.55,1962,623.42Z" transform="translate(0 0)"/><path d="M2440.53,670.59c-32.59,0-73.75-10.29-97.76-32.59a41.83,41.83,0,0,1,.86,10.29c0,9.43-6.86,41.16-20.58,41.16-.86,0-1.72,0-1.72-1.71,0-4.29,5.15-10.29,5.15-15.44,0-7.72-4.29-16.29-6.87-22.29-.85-6.86-72.88-143.21-73.74-143.21-6,0-24.87,17.15-39.45,26.58v72c0,22.29,22.3,30.87,45.45,30.87-50.59,8.57-78.89,36.87-94.33,64.31-30-36.87-83.18-56.6-118.34-63.46,26.59,0,36-14.58,36-30V124.34c0-104.62-30-115.77-51.45-119.2A98.6,98.6,0,0,1,2055.48,0c53.16,0,111.48,39.45,119.19,104.62,3.43-14.58,16.3-42,42.88-42,7.72,0,20.58,5.14,22.3,17.15A22.56,22.56,0,0,0,2221,69.48c-7.72,0-15.44,8.57-15.44,27.44l.86,293.27a303.89,303.89,0,0,0,51.45-42.87c41.16-42,78.9-102.9,76.32-102,1.72,0,2.58,1.72,2.58,6.86v4.29c0,12.86,6.86,48.88,28.29,69.46,33.45,32.59,80.61,25.73,80.61,30.87,0,6.86-36,9.43-70.32,42.88-9.43,9.43-22.29,20.58-36,32.58,39.44,66.89,80.61,211.81,130.34,211.81,26.59,0,32.59-16.29,32.59-30,0-9.43-4.29-11.15-9.43-15.44,0,8.58-6,15.44-14.58,15.44-7.72,0-13.72-6.86-13.72-15.44s8.57-15.43,18-15.43c11.14,0,30,11.15,30,31.73v3.43C2510,645.72,2479.12,670.59,2440.53,670.59ZM2238.15,383.32c-4.29,1.71-27.44,16.29-31.73,20.58V519.66c29.16-18,63.46-52.31,79.75-63.46C2271.59,431.34,2243.28,382.46,2238.15,383.32Z" transform="translate(0 0)"/><path class="cls-1" d="M2689.21,358.45v296.7c0,64.32,0,103.76,21.44,120.91,5.15,3.43,10.29,6.86,10.29,9.44,0,.85-.85,1.71-4.29,1.71-14.57,0-52.3-17.15-65.17-45.45C2647.2,837.76,2570,933,2448.25,933c-56.6,0-78.89-39.45-78.89-68.6,0-38.59,28.29-64.32,57.45-64.32,19.72,0,34.3,14.58,34.3,28.3,0,16.29-12,22.3-19.72,22.3s-16.3-4.29-16.3-14.58c0-6,6-12,11.15-12,3.43,0,6.86,2.58,9.44,2.58a3.7,3.7,0,0,0,3.43-3.43c0-4.29-6.86-14.58-19.73-14.58-24,0-49.73,21.44-49.73,55.74,0,24,18,57.45,63.45,57.45,36,0,78.9-22.29,99.48-78C2558.87,801,2558,750.38,2558,697.21V357.59c0-11.15-18.86-13.72-37.73-17.15,31.73-5.15,93.47-37.73,107.19-81.47,10.29,44.6,67.75,70.32,102.91,78C2708.08,337.87,2689.21,340.44,2689.21,358.45Zm-57.45-155.22c-12.86-32.58-52.31-75.46-84.89-91.75l-13.73,12c-2.57,1.72-4.28,2.58-6,2.58s-2.57,0-2.57-1.72c0-9.43,92.61-78.89,104.62-102,18,34.3,48,73.74,84.89,92.61l16.3-14.58c1.71-1.71,3.43-2.57,4.28-2.57,2.58,0,3.43,1.71,3.43,4.29a6.44,6.44,0,0,1-1.71,3.42C2708.94,131.2,2658.34,168.93,2631.76,203.23Z" transform="translate(0 0)"/><path class="cls-1" d="M3085.39,687.74c-23.16,0-114-35.16-114-50.6v-1.71C2938.75,650.86,2907,710,2913,710c-7.71,0-2.57-33.44-67.74-58.31-18-6.86-35.16-8.57-49.74-8.57-32.58,0-40.3,12-44.59,12a2.27,2.27,0,0,1-2.57-1.92,2.36,2.36,0,0,1,0-.65c0-7.72,20.58-23.15,20.58-43.73V490.51c0-15.44-12-27.44-12-32.59,0-1.72.86-3.43,2.58-3.43,4.29,0,24.87,24,81.46,24,49.74,0,97.76-18.86,131.2-41.16V422.76c0-20.58-13.72-6-56.59-29.15-22.3-11.15-51.45-34.31-61.74-34.31s-43.74,25.73-43.74,54c0,29.15,15.44,35.16,28.3,35.16,10.29,0,16.29-7.72,18-15.44-7.72-.86-13.72-6-13.72-12.86s6.86-12.87,13.72-12.87c7.72,0,13.72,6,13.72,12.87,0,18.86-11.15,38.59-31.73,38.59-22.3,0-39.45-15.44-39.45-42.88,0-34.3,28.3-60.88,64.32-87.47,48.88-36,72.89-72.89,77.18-72.89,2.57,0,5.14,2.58,7.71,6.86,5.15,8.58,114.91,75.47,143.21,84.9a106,106,0,0,0,36.87,6.86c14.58,0,23.16-5.15,28.3-5.15,4.29,0,7.72,2.58,7.72,5.15,0,6-69.46,12-69.46,43.73V560c0,12.86,41.16,34.3,60.89,34.3,25.72,0,25.72-22.3,36-22.3a3.7,3.7,0,0,1,3.43,3.43,12.35,12.35,0,0,1-3.43,8.58C3179.72,597.7,3100,687.74,3085.39,687.74Zm-113.2-232.39c-75.46,45.45-82.32,18.86-82.32,40.3v61.74c0,18,26.58-2.57,81.47,59.17Z" transform="translate(0 0)"/><path class="cls-1" d="M3503,623.42c-37.73,37.73-51.45,68.61-56.6,68.61-1.71,0-31.73-42.88-153.49-42.88-91.76,0-126.06,40.3-127.77,40.3s-1.72-.86-1.72-2.57c0-19.72,75.46-66.89,75.46-78.89V444.2c0-6.86-7.72-16.29-23.15-16.29-5.15,0-13.72,1.71-17.15,1.71s-4.29-.86-4.29-1.71c0-3.43,65.17-24,132.92-77.18,38.59-30.87,104.62-96,109.76-108.91,2.57-5.14,4.29-7.72,6-7.72.86,0,.86,1.72.86,4.29,0,5.15-1.71,10.29-1.71,17.15a35.45,35.45,0,0,0,8.57,23.16c12,14.57,66.89,62.6,90.9,62.6,11.15,0,15.43-7.72,15.43-12s-4.28-6-4.28-8.58a2.27,2.27,0,0,1,1.92-2.57,2.36,2.36,0,0,1,.65,0c6.86,0,9.43,6,9.43,12a36.93,36.93,0,0,1-3.43,16.29c-6.86,12.86-65.17,78.89-93.47,78.89-48,0-104.62-84.89-108.9-84.89-1.72,0-3.44,1.71-3.44,5.14V540.24c0,17.15,41.17,13.72,87.47,23.15,47.17,10.3,89.19,23.16,82.33,24,3.43,0,21.43-16.3,43.73-26.59a17,17,0,0,1,6-.85c3.43,0,4.29.85,4.29,2.57s-1.71,4.29-6,6.86C3562.17,576.26,3527.87,598.55,3503,623.42Z" transform="translate(0 0)"/><path class="cls-1" d="M3981.5,670.59c-32.58,0-73.75-10.29-97.76-32.59a41.83,41.83,0,0,1,.86,10.29c0,9.43-6.86,41.16-20.58,41.16-.86,0-1.71,0-1.71-1.71,0-4.29,5.14-10.29,5.14-15.44,0-7.72-4.29-16.29-6.86-22.29-.86-6.86-72.89-143.21-73.75-143.21-6,0-24.87,17.15-39.44,26.58v72c0,22.29,22.29,30.87,45.44,30.87-50.59,8.57-78.89,36.87-94.32,64.31-30-36.87-83.18-56.6-118.34-63.46,26.58,0,36-14.58,36-30V124.34c0-104.62-30-115.77-51.45-119.2A98.64,98.64,0,0,1,3596.46,0c53.17,0,111.48,39.45,119.2,104.62,3.43-14.58,16.29-42,42.88-42,7.71,0,20.58,5.14,22.29,17.15A22.55,22.55,0,0,0,3762,69.48c-7.71,0-15.43,8.57-15.43,27.44l.86,293.27a303.89,303.89,0,0,0,51.45-42.87c41.16-42,78.89-102.9,76.32-102,1.71,0,2.57,1.72,2.57,6.86v4.29c0,12.86,6.86,48.88,28.3,69.46,33.44,32.59,80.61,25.73,80.61,30.87,0,6.86-36,9.43-70.32,42.88-9.43,9.43-22.29,20.58-36,32.58,39.45,66.89,80.61,211.81,130.35,211.81,26.58,0,32.58-16.29,32.58-30,0-9.43-4.28-11.15-9.43-15.44,0,8.58-6,15.44-14.58,15.44-7.71,0-13.72-6.86-13.72-15.44s8.58-15.43,18-15.43c11.15,0,30,11.15,30,31.73v3.43C4051,645.72,4020.09,670.59,3981.5,670.59ZM3779.13,383.32c-4.29,1.71-27.45,16.29-31.73,20.58V519.66c29.15-18,63.45-52.31,79.75-63.46C3812.57,431.34,3784.28,382.46,3779.13,383.32Z" transform="translate(0 0)"/></svg>