<svg id="Layer_9" data-name="Layer 9" xmlns="http://www.w3.org/2000/svg" viewBox="0 0 4053.53 932.99"><defs><style>.cls-1{fill:#7f0020;}</style></defs><path d="M1122.19,732.52c-95.19,0-176.65-49.73-243.54-49.73-92.61,0-134.63,60-134.63,91.75,0,41.16,46.3,89.18,119.19,89.18,39.45,0,60.89-14.57,69.46-28.29-7.71-.86-14.58-9.44-14.58-19.73,0-11.15,7.72-19.72,17.16-19.72,10.29,0,18,8.57,18,19.72,0,46.31-57.45,60.89-95.18,60.89-88.33,0-130.35-62.6-130.35-115.77,0-11.15.86-21.44,4.29-31.73,17.15-59.17,128.63-164.64,296.71-164.64,90,0,215.24,30.87,286.41,30.87,108.91,0,100.33-31.73,110.62-31.73,1.72,0,2.57.86,2.57,3.43a9.41,9.41,0,0,1-.85,4.29C1417.18,603.89,1263.68,732.52,1122.19,732.52Zm568.54,386.75c0,.86-.86,1.71-2.57,1.71-4.29,0-19.73-6.86-44.6-6.86-28.29,0-70.31,7.72-127.77,34.31-87.47,41.16-124.34,109.76-127.77,121.76-2.57,6.86-3.43,12.87-5.14,12.87-.86,0-.86-2.58-1.72-9.44-1.71-16.29-103.76-90.89-250.4-90.89-214.38,0-271.83,105.47-271.83,143.2,0,41.16,52.31,92.62,144.92,92.62,96.9,0,133.77-65.18,138.06-80.61a65.1,65.1,0,0,0,2.57-18c0-28.3-19.72-25.73-19.72-37.73,0-2.57,1.71-4.29,5.15-4.29,16.29,0,33.44,14.58,33.44,39.45,0,54-75.46,114.05-162.93,114.05-80.61,0-156.07-47.16-156.07-113.19,0-101.19,198.94-233.25,402.18-233.25,150.07,0,222.1,49.73,230.67,54.88,1.72.86,3.43,1.71,4.29,1.71,4.29,0,5.15-5.14,5.15-12,0-8.58-.86-122.63-2.58-134.63-2.57-16.3-54-48-99.47-48a109.23,109.23,0,0,0-31.73,4.28V1067c0,2.57.86,5.15.86,6.86a3.14,3.14,0,0,1-3.43,3.43,6.47,6.47,0,0,1-3.43-.86c-38.59-9.43-99.47-3.43-99.47-18V730c0-9.43,37.73-13.72,114-68.6,70.32-50.6,88.32-86.61,93.47-86.61,2.57,0,6.86,16.29,99.47,73.74,54.88,34.31,79.75,80.61,79.75,114.91,0,42.88-67.74,81.47-80.61,90-3.43,3.44-6,5.15-6,6.87,0,3.42,24.87,5.14,64.32,32.58,50.59,36,60.88,56.6,60.88,56.6,0,3.43-12.86,7.72-12.86,25.72,0,15.44,1.71,101.19,1.71,108.91,0,12,16.3,24,20.58,27.44C1684.73,1113.27,1690.73,1117.55,1690.73,1119.27Zm-471.64-60c0,4.29,1.71,5.15,1.71,6,0-.85-1.71-.85-5.14-.85-21.44,0-110.62,21.43-119.2,26.58a5.53,5.53,0,0,1-4.29,1.72c-2.57,0-3.43-.86-3.43-3.43,0-1.72,1.72-4.29,3.43-6,6-6,6-32.58,6-32.58v-84c-7.72-2.57-16.3-5.15-24.87-5.15-33.45,0-51.45,21.44-51.45,36.88,0,12,19.72,23.15,19.72,24s0,2.57-1.72,2.57c-4.28,0-29.15-1.71-29.15-33.44,0-26.59,23.15-65.17,87.47-69.46V873.16c-11.15-8.58-27.44-14.58-43.74-14.58-33.44,0-51.45,20.58-51.45,36,0,7.71,5.15,19.72,16.29,21.44,1.72,0,2.58.85,3.43,2.57,0,1.71,0,2.57-4.28,2.57-6.86,0-26.59-5.14-26.59-32.59,0-33.44,30-69.46,106.34-69.46v-40.3c0-16.29-27.44-19.72-27.44-24.87,0-1.71,1.71-2.57,6.86-2.57a377.77,377.77,0,0,0,43.73,2.57c47.16,0,93.47-17.15,94.33-17.15,3.43,0,3.43,3.43,3.43,10.29Zm271-203.23c0-27.44-24.87-59.17-40.31-76.32-30.87-32.59-98.61-95.19-96.9-95.19-.86,0-.86,1.72-.86,2.57,0,2.58.86,6.86.86,12V942.62c36.88-8.58,109.77-35.16,129.49-62.6A40.16,40.16,0,0,0,1490.07,856Z" transform="translate(-727.72 -543.01)"/><path d="M1818.51,1250.47c-30-36.87-83.18-56.6-118.34-63.46,26.58,0,36-14.57,36-30V667.35c0-104.62-30-115.77-51.46-119.2a98.68,98.68,0,0,1,31.73-5.14c53.17,0,111.48,39.45,119.2,104.62,3.43-14.58,16.29-42,42.88-42,7.71,0,20.58,5.14,22.29,17.15A22.55,22.55,0,0,0,1882,612.47c-7.72,0-15.44,8.57-15.44,27.44v515.37c0,22.3,23.15,30.88,46.31,30.88C1862.24,1194.73,1833.94,1223,1818.51,1250.47Z" transform="translate(-727.72 -543.01)"/><path d="M2272.13,1230.75c-23.15,0-114.05-35.16-114.05-50.6v-1.71c-32.58,15.43-64.31,74.6-58.31,74.6-7.72,0-2.57-33.44-67.75-58.31-18-6.86-35.15-8.57-49.73-8.57-32.59,0-40.3,12-44.59,12a2.28,2.28,0,0,1-2.58-2.57c0-7.72,20.59-23.15,20.59-43.73V1033.52c0-15.44-12-27.44-12-32.59,0-1.72.86-3.43,2.57-3.43,4.29,0,24.87,24,81.47,24,49.73,0,97.76-18.86,131.2-41.16V965.77c0-20.58-13.72-6-56.6-29.15-22.29-11.15-51.45-34.31-61.74-34.31s-43.73,25.73-43.73,54c0,29.15,15.43,35.16,28.3,35.16,10.29,0,16.29-7.72,18-15.44-7.71-.86-13.72-6-13.72-12.86s6.86-12.87,13.72-12.87c7.72,0,13.72,6,13.72,12.87,0,18.86-11.14,38.59-31.72,38.59-22.3,0-39.45-15.44-39.45-42.88,0-34.3,28.3-60.88,64.31-87.47,48.88-36,72.89-72.89,77.18-72.89,2.57,0,5.15,2.58,7.72,6.86,5.14,8.58,114.91,75.47,143.21,84.9a106,106,0,0,0,36.87,6.86c14.58,0,23.15-5.15,28.3-5.15,4.29,0,7.72,2.58,7.72,5.15,0,6-69.46,12-69.46,43.73V1103c0,12.86,41.16,34.3,60.88,34.3,25.73,0,25.73-22.3,36-22.3a3.7,3.7,0,0,1,3.43,3.43,12.32,12.32,0,0,1-3.43,8.58C2366.46,1140.71,2286.71,1230.75,2272.13,1230.75ZM2158.94,998.36c-75.46,45.45-82.32,18.86-82.32,40.3v61.74c0,18,26.58-2.57,81.46,59.17Z" transform="translate(-727.72 -543.01)"/><path d="M2689.75,1166.43c-37.74,37.73-51.46,68.61-56.6,68.61-1.72,0-31.73-42.88-153.5-42.88-91.75,0-126.06,40.3-127.77,40.3s-1.72-.86-1.72-2.57c0-19.72,75.47-66.89,75.47-78.89V987.21c0-6.86-7.72-16.29-23.16-16.29-5.14,0-13.72,1.71-17.15,1.71s-4.28-.86-4.28-1.71c0-3.43,65.17-24,132.91-77.18,38.59-30.87,104.62-96,109.77-108.91,2.57-5.14,4.28-7.72,6-7.72.86,0,.86,1.72.86,4.29,0,5.15-1.72,10.29-1.72,17.15a35.46,35.46,0,0,0,8.58,23.16c12,14.57,66.88,62.6,90.89,62.6,11.15,0,15.44-7.72,15.44-12s-4.29-6-4.29-8.58a2.27,2.27,0,0,1,2.57-2.57c6.86,0,9.44,6,9.44,12a37.18,37.18,0,0,1-3.43,16.29c-6.86,12.86-65.17,78.89-93.47,78.89-48,0-104.62-84.89-108.91-84.89-1.71,0-3.43,1.71-3.43,5.14v194.66c0,17.15,41.16,13.72,87.47,23.15,47.16,10.3,89.18,23.16,82.32,24,3.43,0,21.44-16.3,43.73-26.59a16.92,16.92,0,0,1,6-.85c3.43,0,4.28.85,4.28,2.57s-1.71,4.29-6,6.86C2748.91,1119.27,2714.61,1141.56,2689.75,1166.43Z" transform="translate(-727.72 -543.01)"/><path d="M3168.25,1213.6c-32.59,0-73.75-10.29-97.76-32.59a41.63,41.63,0,0,1,.86,10.29c0,9.43-6.86,41.16-20.58,41.16-.86,0-1.72,0-1.72-1.71,0-4.29,5.15-10.29,5.15-15.44,0-7.72-4.29-16.29-6.87-22.29-.85-6.86-72.88-143.21-73.74-143.21-6,0-24.87,17.15-39.45,26.58v72c0,22.29,22.3,30.87,45.45,30.87-50.59,8.57-78.89,36.87-94.33,64.31-30-36.87-83.18-56.6-118.34-63.46,26.59,0,36-14.58,36-30V667.35c0-104.62-30-115.77-51.45-119.2a98.68,98.68,0,0,1,31.73-5.14c53.16,0,111.48,39.45,119.19,104.62,3.43-14.58,16.3-42,42.88-42,7.72,0,20.58,5.14,22.3,17.15a22.58,22.58,0,0,0-18.87-10.29c-7.72,0-15.44,8.57-15.44,27.44l.86,293.27a303.5,303.5,0,0,0,51.45-42.87c41.16-42,78.9-102.9,76.32-102,1.72,0,2.58,1.72,2.58,6.86v4.29c0,12.86,6.86,48.88,28.29,69.46,33.45,32.59,80.61,25.73,80.61,30.87,0,6.86-36,9.43-70.32,42.88-9.43,9.43-22.29,20.58-36,32.58,39.44,66.89,80.61,211.81,130.34,211.81,26.59,0,32.59-16.29,32.59-30,0-9.43-4.29-11.15-9.43-15.44,0,8.58-6,15.44-14.58,15.44-7.72,0-13.72-6.86-13.72-15.44s8.57-15.43,18-15.43c11.14,0,30,11.15,30,31.73v3.43C3237.71,1188.73,3206.84,1213.6,3168.25,1213.6ZM2965.87,926.33c-4.29,1.71-27.44,16.29-31.73,20.58v115.76c29.16-18,63.46-52.31,79.75-63.46C2999.31,974.35,2971,925.47,2965.87,926.33Z" transform="translate(-727.72 -543.01)"/><path class="cls-1" d="M3416.93,901.46v296.7c0,64.32,0,103.76,21.44,120.91,5.15,3.43,10.29,6.86,10.29,9.44,0,.85-.85,1.71-4.29,1.71-14.57,0-52.3-17.15-65.17-45.45-4.28,96-81.46,191.23-203.23,191.23-56.6,0-78.89-39.45-78.89-68.6,0-38.59,28.29-64.32,57.45-64.32,19.72,0,34.3,14.58,34.3,28.3,0,16.29-12,22.3-19.72,22.3s-16.3-4.29-16.3-14.58c0-6,6-12,11.15-12,3.43,0,6.86,2.58,9.44,2.58a3.7,3.7,0,0,0,3.43-3.43c0-4.29-6.86-14.58-19.73-14.58-24,0-49.73,21.44-49.73,55.74,0,24,18,57.45,63.45,57.45,36,0,78.9-22.29,99.48-78,16.29-42.88,15.43-93.47,15.43-146.64V900.6c0-11.15-18.86-13.72-37.73-17.15,31.73-5.15,93.47-37.73,107.19-81.47,10.29,44.6,67.75,70.32,102.91,78C3435.8,880.88,3416.93,883.45,3416.93,901.46Zm-57.45-155.22c-12.86-32.58-52.31-75.46-84.89-91.75l-13.73,12c-2.57,1.72-4.28,2.58-6,2.58s-2.57,0-2.57-1.72c0-9.43,92.61-78.89,104.62-102,18,34.3,48,73.74,84.89,92.61l16.3-14.58c1.71-1.71,3.43-2.57,4.28-2.57,2.58,0,3.43,1.71,3.43,4.29a6.45,6.45,0,0,1-1.71,3.42C3436.66,674.21,3386.06,711.94,3359.48,746.24Z" transform="translate(-727.72 -543.01)"/><path class="cls-1" d="M3813.11,1230.75c-23.16,0-114.05-35.16-114.05-50.6v-1.71c-32.59,15.43-64.32,74.6-58.32,74.6-7.71,0-2.57-33.44-67.74-58.31-18-6.86-35.16-8.57-49.74-8.57-32.58,0-40.3,12-44.59,12a2.27,2.27,0,0,1-2.57-2.57c0-7.72,20.58-23.15,20.58-43.73V1033.52c0-15.44-12-27.44-12-32.59,0-1.72.86-3.43,2.58-3.43,4.29,0,24.87,24,81.46,24,49.74,0,97.76-18.86,131.2-41.16V965.77c0-20.58-13.72-6-56.59-29.15-22.3-11.15-51.45-34.31-61.74-34.31s-43.74,25.73-43.74,54c0,29.15,15.44,35.16,28.3,35.16,10.29,0,16.29-7.72,18-15.44-7.72-.86-13.72-6-13.72-12.86s6.86-12.87,13.72-12.87c7.72,0,13.72,6,13.72,12.87,0,18.86-11.15,38.59-31.73,38.59-22.3,0-39.45-15.44-39.45-42.88,0-34.3,28.3-60.88,64.32-87.47,48.88-36,72.89-72.89,77.18-72.89,2.57,0,5.14,2.58,7.71,6.86,5.15,8.58,114.91,75.47,143.21,84.9a106,106,0,0,0,36.87,6.86c14.58,0,23.16-5.15,28.3-5.15,4.29,0,7.72,2.58,7.72,5.15,0,6-69.46,12-69.46,43.73V1103c0,12.86,41.16,34.3,60.89,34.3,25.72,0,25.72-22.3,36-22.3a3.69,3.69,0,0,1,3.43,3.43,12.32,12.32,0,0,1-3.43,8.58C3907.44,1140.71,3827.69,1230.75,3813.11,1230.75Zm-113.2-232.39c-75.46,45.45-82.32,18.86-82.32,40.3v61.74c0,18,26.58-2.57,81.47,59.17Z" transform="translate(-727.72 -543.01)"/><path class="cls-1" d="M4230.72,1166.43c-37.73,37.73-51.45,68.61-56.6,68.61-1.71,0-31.73-42.88-153.49-42.88-91.76,0-126.06,40.3-127.77,40.3s-1.72-.86-1.72-2.57c0-19.72,75.46-66.89,75.46-78.89V987.21c0-6.86-7.72-16.29-23.15-16.29-5.15,0-13.72,1.71-17.15,1.71s-4.29-.86-4.29-1.71c0-3.43,65.17-24,132.92-77.18,38.59-30.87,104.62-96,109.76-108.91,2.57-5.14,4.29-7.72,6-7.72.86,0,.86,1.72.86,4.29,0,5.15-1.71,10.29-1.71,17.15a35.44,35.44,0,0,0,8.57,23.16c12,14.57,66.89,62.6,90.9,62.6,11.15,0,15.43-7.72,15.43-12s-4.28-6-4.28-8.58a2.27,2.27,0,0,1,2.57-2.57c6.86,0,9.43,6,9.43,12a37,37,0,0,1-3.43,16.29c-6.86,12.86-65.17,78.89-93.47,78.89-48,0-104.62-84.89-108.9-84.89-1.72,0-3.44,1.71-3.44,5.14v194.66c0,17.15,41.17,13.72,87.47,23.15,47.17,10.3,89.19,23.16,82.33,24,3.43,0,21.43-16.3,43.73-26.59a16.87,16.87,0,0,1,6-.85c3.43,0,4.29.85,4.29,2.57s-1.71,4.29-6,6.86C4289.89,1119.27,4255.59,1141.56,4230.72,1166.43Z" transform="translate(-727.72 -543.01)"/><path class="cls-1" d="M4709.22,1213.6c-32.58,0-73.75-10.29-97.76-32.59a41.63,41.63,0,0,1,.86,10.29c0,9.43-6.86,41.16-20.58,41.16-.86,0-1.71,0-1.71-1.71,0-4.29,5.14-10.29,5.14-15.44,0-7.72-4.29-16.29-6.86-22.29-.86-6.86-72.89-143.21-73.75-143.21-6,0-24.87,17.15-39.44,26.58v72c0,22.29,22.29,30.87,45.44,30.87-50.59,8.57-78.89,36.87-94.32,64.31-30-36.87-83.18-56.6-118.34-63.46,26.58,0,36-14.58,36-30V667.35c0-104.62-30-115.77-51.45-119.2a98.68,98.68,0,0,1,31.73-5.14c53.17,0,111.48,39.45,119.2,104.62,3.43-14.58,16.29-42,42.88-42,7.71,0,20.58,5.14,22.29,17.15a22.56,22.56,0,0,0-18.87-10.29c-7.71,0-15.43,8.57-15.43,27.44l.86,293.27a303.9,303.9,0,0,0,51.45-42.87c41.16-42,78.89-102.9,76.32-102,1.71,0,2.57,1.72,2.57,6.86v4.29c0,12.86,6.86,48.88,28.3,69.46,33.44,32.59,80.61,25.73,80.61,30.87,0,6.86-36,9.43-70.32,42.88-9.43,9.43-22.29,20.58-36,32.58,39.45,66.89,80.61,211.81,130.35,211.81,26.58,0,32.58-16.29,32.58-30,0-9.43-4.28-11.15-9.43-15.44,0,8.58-6,15.44-14.58,15.44-7.71,0-13.72-6.86-13.72-15.44s8.58-15.43,18-15.43c11.15,0,30,11.15,30,31.73v3.43C4778.68,1188.73,4747.81,1213.6,4709.22,1213.6ZM4506.85,926.33c-4.29,1.71-27.45,16.29-31.73,20.58v115.76c29.15-18,63.45-52.31,79.75-63.46C4540.29,974.35,4512,925.47,4506.85,926.33Z" transform="translate(-727.72 -543.01)"/></svg>